/* XPM */
static char * close_xpm[] = {
"22 23 123 2",
"  	c None",
". 	c #BFBFC2",
"+ 	c #FFFFFF",
"@ 	c #FDFDFD",
"# 	c #FCFCFD",
"$ 	c #EFEFF0",
"% 	c #D3D3D4",
"& 	c #BFBFC0",
"* 	c #B9B9BA",
"= 	c #C0C0C1",
"- 	c #F0F0F1",
"; 	c #FCFCFC",
"> 	c #FAFAFA",
", 	c #D5D5D5",
"' 	c #BCBCBC",
") 	c #D6D6D6",
"! 	c #FBFBFB",
"~ 	c #F9F9F9",
"{ 	c #CFCFCF",
"] 	c #C3C3C3",
"^ 	c #C0C0C0",
"/ 	c #A6A6A6",
"( 	c #8B8B8B",
"_ 	c #838383",
": 	c #8C8C8C",
"< 	c #C1C1C1",
"[ 	c #D0D0D0",
"} 	c #FAFAFB",
"| 	c #DADADB",
"1 	c #C9C9C9",
"2 	c #7E7E7E",
"3 	c #808080",
"4 	c #828282",
"5 	c #8A8A8A",
"6 	c #DBDBDC",
"7 	c #F0F0F0",
"8 	c #CDCDCD",
"9 	c #CBCBCB",
"0 	c #888888",
"a 	c #858585",
"b 	c #8D8D8D",
"c 	c #CACACA",
"d 	c #CECECE",
"e 	c #F1F1F1",
"f 	c #E1E1E1",
"g 	c #D3D3D3",
"h 	c #A8A8A8",
"i 	c #797979",
"j 	c #BEBEBE",
"k 	c #A5A5A5",
"l 	c #DBDBDD",
"m 	c #D4D4D4",
"n 	c #F8F8F9",
"o 	c #DCDCDD",
"p 	c #D8D8D8",
"q 	c #848484",
"r 	c #868686",
"s 	c #DFDFE0",
"t 	c #E4E4E6",
"u 	c #E5E5E6",
"v 	c #DEDEDF",
"w 	c #787879",
"x 	c #DDDDDD",
"y 	c #F8F8F8",
"z 	c #DEDEDE",
"A 	c #727272",
"B 	c #777777",
"C 	c #878787",
"D 	c #A0A0A0",
"E 	c #E3E3E4",
"F 	c #E3E3E6",
"G 	c #787878",
"H 	c #737373",
"I 	c #F7F7F8",
"J 	c #E3E3E3",
"K 	c #E2E2E3",
"L 	c #6F6F6F",
"M 	c #747474",
"N 	c #A1A1A2",
"O 	c #E6E6E7",
"P 	c #757575",
"Q 	c #717171",
"R 	c #E2E2E2",
"S 	c #F6F6F7",
"T 	c #E7E7E7",
"U 	c #7E7E7F",
"V 	c #7F7F7F",
"W 	c #E3E3E5",
"X 	c #DDDDDE",
"Y 	c #7F7F80",
"Z 	c #F6F6F6",
"` 	c #EDEDED",
" .	c #E9E9E9",
"..	c #ACACAC",
"+.	c #6A6A6A",
"@.	c #B8B8B8",
"#.	c #D8D8DA",
"$.	c #9B9B9B",
"%.	c #6B6B6B",
"&.	c #AEAEAE",
"*.	c #EAEAEA",
"=.	c #F5F5F6",
"-.	c #F1F1F2",
";.	c #EDEDEE",
">.	c #6A6A6B",
",.	c #7A7A7A",
"'.	c #7C7C7D",
").	c #F2F2F3",
"!.	c #F4F4F5",
"~.	c #DFDFDF",
"{.	c #656565",
"].	c #676767",
"^.	c #696969",
"/.	c #777778",
"(.	c #F4F4F4",
"_.	c #F3F3F3",
":.	c #EFEFEF",
"<.	c #606060",
"[.	c #AFAFAF",
"}.	c #F5F5F5",
"|.	c #F3F3F4",
"1.	c #F7F7F7",
"2.	c #F2F2F2",
". . . . . . . . . . . . . . . . . . . . . . ",
"+ + + + + + + + + + + + + + + + + + + + + + ",
"@ @ @ @ @ @ @ @ @ @ @ @ @ @ @ @ @ @ @ @ @ @ ",
"# # # # # # # $ % & * * = % - # # # # # # # ",
"; ; ; ; ; > , ' ' ' ' ' ' ' ' ) ! ; ; ; ; ; ",
"! ! ! ! ~ { ] ^ / ( _ _ : / < ] [ ~ ! ! ! ! ",
"} } } } | 1 & ( 2 3 4 4 3 2 5 = 1 6 } } } } ",
"> > > 7 8 9 0 2 a ( b b ( a 2 0 c d e > > > ",
"~ ~ ~ f g h i _ j 6 k k l j _ i h m f ~ ~ ~ ",
"n n n o p q i r s - t u - v r w r p x n n n ",
"y y y z z A B C D E - - F D C G H z z y y y ",
"I I I J K L M q N O - - O N a P Q R J I I I ",
"S S S T u U Q V z - W u - X V Q Y u T S S S ",
"Z Z Z `  ...+.P @.#.$.$.#.@.P %.&.*.` Z Z Z ",
"=.=.=.-.;.T G >.H ,.'.'.,.H >.w  .;.).=.=.=.",
"!.!.!.!.7 e ~.B {.].^.^.].{./.~.e $ !.!.!.!.",
"(.(.(.(.(._.(.:.&.P <.<.P [.:.}._.(.(.(.(.(.",
"|.|.|.|.|.|.!.S S S S S S S S !.|.|.|.|.|.|.",
").).).).).).).|.=.1.~ ~ 1.}.|.).).).).).).).",
"2.2.2.2.2.2.2.2.2.2.2.2.2.2.2.2.2.2.2.2.2.2.",
"-.-.-.-.-.-.-.-.-.-.-.-.-.-.-.-.-.-.-.-.-.-.",
"- - - - - - - - - - - - - - - - - - - - - - ",
"- - - - - - - - - - - - - - - - - - - - - - "};
