/* XPM */
static char * min_pressed_xpm[] = {
"22 23 115 2",
"  	c None",
". 	c #BFBFC2",
"+ 	c #FFFFFF",
"@ 	c #FDFDFD",
"# 	c #FCFCFD",
"$ 	c #FCFCFC",
"% 	c #EFEFEF",
"& 	c #D3D3D3",
"* 	c #BFBFBF",
"= 	c #B9B9B9",
"- 	c #C0C0C0",
"; 	c #F0F0F0",
"> 	c #FBFBFB",
", 	c #F9F9F9",
"' 	c #D4D4D4",
") 	c #BCBCBC",
"! 	c #BBBBBB",
"~ 	c #D5D5D5",
"{ 	c #FAFAFA",
"] 	c #FAFAFB",
"^ 	c #F8F8F9",
"/ 	c #CFCFCF",
"( 	c #C1C1C2",
"_ 	c #BEBEBF",
": 	c #909090",
"< 	c #696969",
"[ 	c #5D5D5D",
"} 	c #6A6A6A",
"| 	c #919191",
"1 	c #BFBFC0",
"2 	c #D0D0D0",
"3 	c #DBDBDB",
"4 	c #C8C8C8",
"5 	c #6D6D6D",
"6 	c #5A5A5A",
"7 	c #6C6C6C",
"8 	c #DCDCDC",
"9 	c #CDCDCD",
"0 	c #CACACA",
"a 	c #6E6E6E",
"b 	c #C9C9C9",
"c 	c #CECECE",
"d 	c #E0E0E1",
"e 	c #D2D2D3",
"f 	c #9B9B9C",
"g 	c #606060",
"h 	c #616161",
"i 	c #9C9C9D",
"j 	c #D3D3D4",
"k 	c #F8F8F8",
"l 	c #D8D8D8",
"m 	c #787878",
"n 	c #646464",
"o 	c #828282",
"p 	c #818181",
"q 	c #757575",
"r 	c #818182",
"s 	c #7A7A7A",
"t 	c #DDDDDD",
"u 	c #F7F7F8",
"v 	c #DDDDDE",
"w 	c #6B6B6B",
"x 	c #666666",
"y 	c #9B9B9B",
"z 	c #9D9D9D",
"A 	c #9D9D9E",
"B 	c #676767",
"C 	c #DEDEDE",
"D 	c #F6F6F7",
"E 	c #E2E2E3",
"F 	c #E1E1E2",
"G 	c #848485",
"H 	c #9F9FA0",
"I 	c #858585",
"J 	c #6F6F6F",
"K 	c #F6F6F6",
"L 	c #E7E7E7",
"M 	c #E6E6E6",
"N 	c #848484",
"O 	c #6E6E6F",
"P 	c #9A9A9A",
"Q 	c #99999A",
"R 	c #868686",
"S 	c #F5F5F6",
"T 	c #ECECED",
"U 	c #E9E9EA",
"V 	c #B4B4B4",
"W 	c #707070",
"X 	c #808080",
"Y 	c #7F7F80",
"Z 	c #B4B4B5",
"` 	c #EAEAEB",
" .	c #F4F4F5",
"..	c #F1F1F1",
"+.	c #EDEDED",
"@.	c #878787",
"#.	c #737373",
"$.	c #8A8A8A",
"%.	c #F1F1F2",
"&.	c #F4F4F4",
"*.	c #E5E5E5",
"=.	c #8D8D8D",
"-.	c #767676",
";.	c #F3F3F4",
">.	c #F2F2F3",
",.	c #C2C2C2",
"'.	c #929293",
").	c #7D7D7D",
"!.	c #939393",
"~.	c #C2C2C3",
"{.	c #F2F2F2",
"].	c #F3F3F3",
"^.	c #F5F5F5",
"/.	c #F7F7F7",
"(.	c #F0F0F1",
". . . . . . . . . . . . . . . . . . . . . . ",
"+ + + + + + + + + + + + + + + + + + + + + + ",
"@ @ @ @ @ @ @ @ @ @ @ @ @ @ @ @ @ @ @ @ @ @ ",
"# # # # # # # # # # # # # # # # # # # # # # ",
"$ $ $ $ $ $ $ % & * = = - & ; $ $ $ $ $ $ $ ",
"> > > > > , ' ) ! ! ! ! ! ! ) ~ { > > > > > ",
"] ] ] ] ^ / ( _ : < [ [ } | 1 ( 2 ^ ] ] ] ] ",
"{ { { { 3 4 ! 5 6 6 6 6 6 6 7 ) 4 8 { { { { ",
", , , % 9 0 a [ [ [ [ [ [ [ [ a b c ; , , , ",
"^ ^ ^ d e f g g g g g g g g g h i j d ^ ^ ^ ",
"k k k 8 l m n n o p q q p r n n s l t k k k ",
"u u u v t w x x 5 y z A f 5 B B 7 t C u u u ",
"D D D E F 7 } } } G H H I } } } J F E D D D ",
"K K K L M N 5 5 5 O P Q a 5 5 5 R M L K K K ",
"S S S T U V W W W W X Y W W W W Z ` T S S S ",
" . . ...+.U @.#.#.#.#.#.#.#.#.$.` +.%. . . .",
"&.&.&.&.; ..*.=.-.-.-.-.-.-.=.*...; &.&.&.&.",
";.;.;.;.;.>.&...,.'.).).!.~... .>.;.;.;.;.;.",
">.>.>.>.>.>.&.K K K K K K K K &.>.>.>.>.>.>.",
"{.{.{.{.{.{.{.].^./., , /.^.].{.{.{.{.{.{.{.",
"%.%.%.%.%.%.%.%.%.%.%.%.%.%.%.%.%.%.%.%.%.%.",
"(.(.(.(.(.(.(.(.(.(.(.(.(.(.(.(.(.(.(.(.(.(.",
"(.(.(.(.(.(.(.(.(.(.(.(.(.(.(.(.(.(.(.(.(.(."};
