/* XPM */
static char * max_xpm[] = {
"22 23 122 2",
"  	c None",
". 	c #BFBFC2",
"+ 	c #FFFFFF",
"@ 	c #FDFDFD",
"# 	c #FCFCFD",
"$ 	c #EFEFF0",
"% 	c #D3D3D4",
"& 	c #BFBFC0",
"* 	c #B9B9BA",
"= 	c #C0C0C1",
"- 	c #F0F0F1",
"; 	c #FCFCFC",
"> 	c #FAFAFA",
", 	c #D5D5D5",
"' 	c #BCBCBC",
") 	c #BBBBBB",
"! 	c #D6D6D6",
"~ 	c #FBFBFB",
"{ 	c #F9F9F9",
"] 	c #CFCFCF",
"^ 	c #C3C3C3",
"/ 	c #C1C1C1",
"( 	c #A6A6A6",
"_ 	c #8C8C8C",
": 	c #858585",
"< 	c #8E8E8E",
"[ 	c #C2C2C2",
"} 	c #D0D0D0",
"| 	c #FAFAFB",
"1 	c #DBDBDB",
"2 	c #C9C9C9",
"3 	c #C0C0C0",
"4 	c #8B8B8B",
"5 	c #7F7F7F",
"6 	c #838383",
"7 	c #858586",
"8 	c #8A8A8A",
"9 	c #DCDCDC",
"0 	c #F0F0F0",
"a 	c #CDCDCD",
"b 	c #CCCCCC",
"c 	c #878787",
"d 	c #7E7E7E",
"e 	c #868687",
"f 	c #8F8F8F",
"g 	c #949494",
"h 	c #868686",
"i 	c #CBCBCB",
"j 	c #CECECE",
"k 	c #F1F1F1",
"l 	c #E1E1E1",
"m 	c #D3D3D3",
"n 	c #A8A8A8",
"o 	c #79797A",
"p 	c #969696",
"q 	c #E8E8E8",
"r 	c #E8E8EA",
"s 	c #CBCBCC",
"t 	c #797979",
"u 	c #D4D4D4",
"v 	c #F8F8F9",
"w 	c #DCDCDD",
"x 	c #D8D8D9",
"y 	c #7C7C7C",
"z 	c #8A8A8B",
"A 	c #CCCCCE",
"B 	c #DDDDDD",
"C 	c #F8F8F8",
"D 	c #DEDEDE",
"E 	c #747474",
"F 	c #7B7B7B",
"G 	c #EBEBEC",
"H 	c #757575",
"I 	c #F7F7F8",
"J 	c #E3E3E3",
"K 	c #E2E2E3",
"L 	c #707070",
"M 	c #787878",
"N 	c #EEEEF0",
"O 	c #727272",
"P 	c #F6F6F7",
"Q 	c #E7E7E7",
"R 	c #838384",
"S 	c #CACACC",
"T 	c #CACACA",
"U 	c #848484",
"V 	c #808080",
"W 	c #E6E6E7",
"X 	c #F6F6F6",
"Y 	c #EDEDED",
"Z 	c #E9E9E9",
"` 	c #ACACAC",
" .	c #6A6A6A",
"..	c #777777",
"+.	c #C5C5C6",
"@.	c #C6C6C7",
"#.	c #88888A",
"$.	c #767677",
"%.	c #6B6B6B",
"&.	c #AEAEAE",
"*.	c #EAEAEA",
"=.	c #F5F5F6",
"-.	c #F1F1F2",
";.	c #EDEDEE",
">.	c #737373",
",.	c #7D7D7E",
"'.	c #7D7D7D",
").	c #E9E9EA",
"!.	c #F2F2F3",
"~.	c #F4F4F5",
"{.	c #DFDFDF",
"].	c #767676",
"^.	c #656565",
"/.	c #6D6D6D",
"(.	c #F4F4F4",
"_.	c #F3F3F3",
":.	c #626262",
"<.	c #AFAFAF",
"[.	c #F5F5F5",
"}.	c #F3F3F4",
"|.	c #F7F7F7",
"1.	c #F2F2F2",
". . . . . . . . . . . . . . . . . . . . . . ",
"+ + + + + + + + + + + + + + + + + + + + + + ",
"@ @ @ @ @ @ @ @ @ @ @ @ @ @ @ @ @ @ @ @ @ @ ",
"# # # # # # # $ % & * * = % - # # # # # # # ",
"; ; ; ; ; > , ' ' ' ) ) ' ' ' ! ~ ; ; ; ; ; ",
"~ ~ ~ ~ { ] ^ / ( _ : : < ( [ ^ } { ~ ~ ~ ~ ",
"| | | | 1 2 3 4 5 6 7 7 6 5 8 / 2 9 | | | | ",
"> > > 0 a b c d e f g g f h d c i j k > > > ",
"{ { { l m n o : p i q r s p : t n u l { { { ",
"v v v w x : y z A - - - - A z y c x B v v v ",
"C C C D D E F < G - $ $ - G < F H D D C C C ",
"I I I J K L M 4 G - $ N - G _ t O K J I I I ",
"P P P Q Q 5 E R S - - - - T U E V W Q P P P ",
"X X X Y Z `  ...8 +.W W @.#.$.%.&.*.Y X X X ",
"=.=.=.-.;.q .. .>.,.: : '.E  .M ).;.!.=.=.=.",
"~.~.~.~.0 k {.].^. ././. .^...D k 0 ~.~.~.~.",
"(.(.(.(.(._.(.0 &...:.:...<.0 [._.(.(.(.(.(.",
"}.}.}.}.}.}.~.P P P P P P P P ~.}.}.}.}.}.}.",
"!.!.!.!.!.!.!.}.=.|.{ { |.[.}.!.!.!.!.!.!.!.",
"1.1.1.1.1.1.1.1.1.1.1.1.1.1.1.1.1.1.1.1.1.1.",
"-.-.-.-.-.-.-.-.-.-.-.-.-.-.-.-.-.-.-.-.-.-.",
"- - - - - - - - - - - - - - - - - - - - - - ",
"- - - - - - - - - - - - - - - - - - - - - - "};
