/* XPM */
static char * stick_xpm[] = {
"22 23 63 1",
" 	c None",
".	c #BFBFC2",
"+	c #FFFFFF",
"@	c #FDFDFD",
"#	c #FCFCFD",
"$	c #FCFCFC",
"%	c #FBFBFB",
"&	c #FAFAFB",
"*	c #E3E3E4",
"=	c #C5C5C6",
"-	c #BABABB",
";	c #C6C6C6",
">	c #FAFAFA",
",	c #D9D9D9",
"'	c #C0C0C0",
")	c #C1C1C1",
"!	c #F9F9F9",
"~	c #E7E7E7",
"{	c #C9C9C9",
"]	c #C7C7C7",
"^	c #898989",
"/	c #636363",
"(	c #E8E8E8",
"_	c #F8F8F9",
":	c #DADADB",
"<	c #D3D3D4",
"[	c #909090",
"}	c #5F5F5F",
"|	c #919191",
"1	c #DBDBDB",
"2	c #F8F8F8",
"3	c #DCDCDC",
"4	c #6F6F6F",
"5	c #656565",
"6	c #DDDDDD",
"7	c #F7F7F8",
"8	c #E3E3E3",
"9	c #757575",
"0	c #6B6B6B",
"a	c #767676",
"b	c #E5E5E6",
"c	c #F6F6F7",
"d	c #EBEBEB",
"e	c #EAEAEA",
"f	c #A8A8A8",
"g	c #717171",
"h	c #A8A8A9",
"i	c #EBEBEC",
"j	c #F6F6F6",
"k	c #F3F3F3",
"l	c #F0F0F0",
"m	c #EDEDED",
"n	c #AFAFAF",
"o	c #818181",
"p	c #F5F5F6",
"q	c #F3F3F4",
"r	c #F4F4F5",
"s	c #F5F5F5",
"t	c #F4F4F4",
"u	c #F2F2F3",
"v	c #F2F2F2",
"w	c #F1F1F2",
"x	c #F0F0F1",
"......................",
"++++++++++++++++++++++",
"@@@@@@@@@@@@@@@@@@@@@@",
"######################",
"$$$$$$$$$$$$$$$$$$$$$$",
"%%%%%%%%%%%%%%%%%%%%%%",
"&&&&&&&&*=--;*&&&&&&&&",
">>>>>>>,'')))),>>>>>>>",
"!!!!!!~{]^//^]{(!!!!!!",
"______:<[}}}}|<1______",
"2222223145555436222222",
"7777778890000a8b777777",
"ccccccdefggggheicccccc",
"jjjjjjklmnoonmlkjjjjjj",
"pppppppqppppppqppppppp",
"rrrrrrrrs7!!7srrrrrrrr",
"tttttttttttttttttttttt",
"qqqqqqqqqqqqqqqqqqqqqq",
"uuuuuuuuuuuuuuuuuuuuuu",
"vvvvvvvvvvvvvvvvvvvvvv",
"wwwwwwwwwwwwwwwwwwwwww",
"xxxxxxxxxxxxxxxxxxxxxx",
"xxxxxxxxxxxxxxxxxxxxxx"};
