/* XPM */
static char * title_menu_xpm[] = {
"21 21 27 1",
" 	c None",
".	c #919191",
"+	c #FFFFFF",
"@	c #FCFCFC",
"#	c #FDFDFD",
"$	c #FEFEFE",
"%	c #F8F8F8",
"&	c #F9F9F9",
"*	c #FAFAFA",
"=	c #FBFBFB",
"-	c #F4F4F4",
";	c #F5F5F5",
">	c #F6F6F6",
",	c #F7F7F7",
"'	c #F1F1F1",
")	c #F2F2F2",
"!	c #F3F3F3",
"~	c #EDEDED",
"{	c #EEEEEE",
"]	c #EFEFEF",
"^	c #F0F0F0",
"/	c #E9E9E9",
"(	c #EAEAEA",
"_	c #EBEBEB",
":	c #ECECEC",
"<	c #E7E7E7",
"[	c #E8E8E8",
".....................",
"+++++++++++++++++++++",
"+++++++++++++++++++++",
"@@@@@#######$$$$$$$++",
"%%%%&&&&&&*******====",
"--;;;;;;;>>>>>>,,,,,,",
"''''''')))))))!!!!!!!",
"~~~~~{{{{{{{]]]]]]]^^",
"////(((((((______::::",
"<<<<<<<<<<<<<<<<[[[[[",
"<<<<<<<<<<<<<<<<<<<<<",
"<<<<<<<<<<<<<<<<<<<<<",
"<<<<<<<<<<<<<<<<<<<<<",
"<<<<<<<<<<<<<<<<<<<<<",
"<<<<<<<<<<<<<<<<<<<<<",
"<<<<<<<<<<<<<<<<<<<<<",
"<<<<<<<<<<<<<<<<<<<<<",
"<<<<<<<<<<<<<<<<<<<<<",
"<<<<<<<<<<<<<<<<<<<<<",
"<<<<<<<<<<<<<<<<<<<<<",
"<<<<<<<<<<<<<<<<<<<<<"};
