/* XPM */
static char * close_pressed_xpm[] = {
"22 23 115 2",
"  	c None",
". 	c #BFBFC2",
"+ 	c #FFFFFF",
"@ 	c #FDFDFD",
"# 	c #FCFCFD",
"$ 	c #FCFCFC",
"% 	c #EFEFEF",
"& 	c #D3D3D3",
"* 	c #BFBFBF",
"= 	c #B9B9B9",
"- 	c #C0C0C0",
"; 	c #F0F0F0",
"> 	c #FBFBFB",
", 	c #F9F9F9",
"' 	c #D4D4D4",
") 	c #BCBCBC",
"! 	c #BBBBBB",
"~ 	c #D5D5D5",
"{ 	c #FAFAFA",
"] 	c #FAFAFB",
"^ 	c #F8F8F9",
"/ 	c #CFCFCF",
"( 	c #C1C1C2",
"_ 	c #BEBEBF",
": 	c #909090",
"< 	c #696969",
"[ 	c #5D5D5D",
"} 	c #6A6A6A",
"| 	c #919191",
"1 	c #BFBFC0",
"2 	c #D0D0D0",
"3 	c #DBDBDB",
"4 	c #C8C8C8",
"5 	c #6D6D6D",
"6 	c #5A5A5A",
"7 	c #6C6C6C",
"8 	c #DCDCDC",
"9 	c #CDCDCD",
"0 	c #CACACA",
"a 	c #6E6E6E",
"b 	c #C9C9C9",
"c 	c #CECECE",
"d 	c #E0E0E1",
"e 	c #D2D2D3",
"f 	c #9B9B9C",
"g 	c #606060",
"h 	c #7C7C7C",
"i 	c #8C8C8C",
"j 	c #646464",
"k 	c #616161",
"l 	c #9C9C9D",
"m 	c #D3D3D4",
"n 	c #F8F8F8",
"o 	c #D8D8D8",
"p 	c #787878",
"q 	c #9C9C9C",
"r 	c #929292",
"s 	c #939393",
"t 	c #7A7A7A",
"u 	c #DDDDDD",
"v 	c #F7F7F8",
"w 	c #DDDDDE",
"x 	c #6B6B6B",
"y 	c #666666",
"z 	c #929293",
"A 	c #9D9D9D",
"B 	c #9D9D9E",
"C 	c #939394",
"D 	c #676767",
"E 	c #DEDEDE",
"F 	c #F6F6F7",
"G 	c #E2E2E3",
"H 	c #E1E1E2",
"I 	c #6F6F70",
"J 	c #989898",
"K 	c #9F9FA0",
"L 	c #6F6F6F",
"M 	c #F6F6F6",
"N 	c #E7E7E7",
"O 	c #E6E6E6",
"P 	c #848484",
"Q 	c #979797",
"R 	c #A1A1A1",
"S 	c #999999",
"T 	c #868686",
"U 	c #F5F5F6",
"V 	c #ECECED",
"W 	c #E9E9EA",
"X 	c #B4B4B4",
"Y 	c #707070",
"Z 	c #898989",
"` 	c #747474",
" .	c #B4B4B5",
"..	c #EAEAEB",
"+.	c #F4F4F5",
"@.	c #F1F1F1",
"#.	c #EDEDED",
"$.	c #878787",
"%.	c #737373",
"&.	c #8A8A8A",
"*.	c #F1F1F2",
"=.	c #F4F4F4",
"-.	c #E5E5E5",
";.	c #8D8D8D",
">.	c #767676",
",.	c #F3F3F4",
"'.	c #F2F2F3",
").	c #C2C2C2",
"!.	c #7D7D7D",
"~.	c #C2C2C3",
"{.	c #F2F2F2",
"].	c #F3F3F3",
"^.	c #F5F5F5",
"/.	c #F7F7F7",
"(.	c #F0F0F1",
". . . . . . . . . . . . . . . . . . . . . . ",
"+ + + + + + + + + + + + + + + + + + + + + + ",
"@ @ @ @ @ @ @ @ @ @ @ @ @ @ @ @ @ @ @ @ @ @ ",
"# # # # # # # # # # # # # # # # # # # # # # ",
"$ $ $ $ $ $ $ % & * = = - & ; $ $ $ $ $ $ $ ",
"> > > > > , ' ) ! ! ! ! ! ! ) ~ { > > > > > ",
"] ] ] ] ^ / ( _ : < [ [ } | 1 ( 2 ^ ] ] ] ] ",
"{ { { { 3 4 ! 5 6 6 6 6 6 6 7 ) 4 8 { { { { ",
", , , % 9 0 a [ [ [ [ [ [ [ [ a b c ; , , , ",
"^ ^ ^ d e f g g h i j j i h g k l m d ^ ^ ^ ",
"n n n 8 o p j j | q r s q | j j t o u n n n ",
"v v v w u x y y < z A B C } D D 7 u E v v v ",
"F F F G H 7 } } I J K K J I } } L H G F F F ",
"M M M N O P 5 5 Q R J S R Q 5 5 T O N M M M ",
"U U U V W X Y Y Z Q ` ` Q Z Y Y  ...V U U U ",
"+.+.+.@.#.W $.%.%.%.%.%.%.%.%.&...#.*.+.+.+.",
"=.=.=.=.; @.-.;.>.>.>.>.>.>.;.-.@.; =.=.=.=.",
",.,.,.,.,.'.=.@.).z !.!.s ~.@.+.'.,.,.,.,.,.",
"'.'.'.'.'.'.=.M M M M M M M M =.'.'.'.'.'.'.",
"{.{.{.{.{.{.{.].^./., , /.^.].{.{.{.{.{.{.{.",
"*.*.*.*.*.*.*.*.*.*.*.*.*.*.*.*.*.*.*.*.*.*.",
"(.(.(.(.(.(.(.(.(.(.(.(.(.(.(.(.(.(.(.(.(.(.",
"(.(.(.(.(.(.(.(.(.(.(.(.(.(.(.(.(.(.(.(.(.(."};
