/* XPM */
static char * menub_xpm[] = {
"39 30 3 1",
" 	c None",
".	c #EEEEEE",
"+	c #383838",
".......................................",
"..+++++++++++++++++++++++++++++++++++..",
"..+++++++++++++++++++++++++++++++++++..",
"..+++++++++++++++++++++++++++++++++++..",
"..+++++++++++++++++++++++++++++++++++..",
"..+++++++++++++++++++++++++++++++++++..",
"..+++++++++++++++++++++++++++++++++++..",
"..+++++++++++++++++++++++++++++++++++..",
"..+++++++++++++++++++++++++++++++++++..",
"..+++++++++++++++++++++++++++++++++++..",
"..+++++++++++++++++++++++++++++++++++..",
"..+++++++++++++++++++++++++++++++++++..",
"..+++++++++++++++++++++++++++++++++++..",
"..+++++++++++++++++++++++++++++++++++..",
"..+++++++++++++++++++++++++++++++++++..",
"..+++++++++++++++++++++++++++++++++++..",
"..+++++++++++++++++++++++++++++++++++..",
"..+++++++++++++++++++++++++++++++++++..",
"..+++++++++++++++++++++++++++++++++++..",
"..+++++++++++++++++++++++++++++++++++..",
"..+++++++++++++++++++++++++++++++++++..",
"..+++++++++++++++++++++++++++++++++++..",
"..+++++++++++++++++++++++++++++++++++..",
"..+++++++++++++++++++++++++++++++++++..",
"..+++++++++++++++++++++++++++++++++++..",
"..+++++++++++++++++++++++++++++++++++..",
"..+++++++++++++++++++++++++++++++++++..",
"..+++++++++++++++++++++++++++++++++++..",
"..+++++++++++++++++++++++++++++++++++..",
"......................................."};
