/* XPM */
static char * min_xpm[] = {
"22 23 129 2",
"  	c None",
". 	c #BFBFC2",
"+ 	c #FFFFFF",
"@ 	c #FDFDFD",
"# 	c #FCFCFD",
"$ 	c #EFEFF0",
"% 	c #D3D3D4",
"& 	c #BFBFC0",
"* 	c #B9B9BA",
"= 	c #C0C0C1",
"- 	c #F0F0F1",
"; 	c #FCFCFC",
"> 	c #FAFAFA",
", 	c #D5D5D5",
"' 	c #BCBCBC",
") 	c #BBBBBB",
"! 	c #D6D6D6",
"~ 	c #FBFBFB",
"{ 	c #F9F9F9",
"] 	c #CFCFCF",
"^ 	c #C2C2C2",
"/ 	c #C0C0C0",
"( 	c #A4A4A4",
"_ 	c #888888",
": 	c #818181",
"< 	c #898989",
"[ 	c #C1C1C1",
"} 	c #D0D0D0",
"| 	c #FAFAFB",
"1 	c #DBDBDB",
"2 	c #C8C8C9",
"3 	c #BFBFBF",
"4 	c #797979",
"5 	c #7A7A7A",
"6 	c #878787",
"7 	c #DCDCDC",
"8 	c #F0F0F0",
"9 	c #CDCDCD",
"0 	c #CCCCCC",
"a 	c #838383",
"b 	c #777777",
"c 	c #7E7E7E",
"d 	c #7F7F7F",
"e 	c #848484",
"f 	c #CBCBCB",
"g 	c #CECECE",
"h 	c #F1F1F1",
"i 	c #E1E1E1",
"j 	c #D3D3D3",
"k 	c #A6A6A6",
"l 	c #747474",
"m 	c #868686",
"n 	c #D4D4D4",
"o 	c #F8F8F9",
"p 	c #DCDCDD",
"q 	c #D8D8D9",
"r 	c #727272",
"s 	c #BEBEBE",
"t 	c #B2B2B3",
"u 	c #BDBDBE",
"v 	c #848485",
"w 	c #DDDDDE",
"x 	c #F8F8F8",
"y 	c #DEDEDE",
"z 	c #DDDDDD",
"A 	c #6F6F6F",
"B 	c #717171",
"C 	c #959595",
"D 	c #EDEDEE",
"E 	c #ECECED",
"F 	c #939393",
"G 	c #707071",
"H 	c #707070",
"I 	c #F7F7F8",
"J 	c #E3E3E3",
"K 	c #E2E2E2",
"L 	c #6C6C6C",
"M 	c #757575",
"N 	c #C0C0C2",
"O 	c #6D6D6D",
"P 	c #6E6E6E",
"Q 	c #F6F6F7",
"R 	c #E7E7E7",
"S 	c #E6E6E7",
"T 	c #7B7B7B",
"U 	c #686868",
"V 	c #8B8B8C",
"W 	c #E3E3E4",
"X 	c #E1E1E2",
"Y 	c #8B8B8B",
"Z 	c #7C7C7C",
"` 	c #F6F6F6",
" .	c #EDEDED",
"..	c #EAEAEA",
"+.	c #AAAAAA",
"@.	c #626263",
"#.	c #676767",
"$.	c #777778",
"%.	c #A2A2A3",
"&.	c #A1A1A3",
"*.	c #787879",
"=.	c #636363",
"-.	c #ACACAC",
";.	c #EBEBEB",
">.	c #F5F5F6",
",.	c #F1F1F2",
"'.	c #E7E7E8",
").	c #606060",
"!.	c #646464",
"~.	c #69696A",
"{.	c #696969",
"].	c #E9E9EA",
"^.	c #F2F2F3",
"/.	c #F4F4F5",
"(.	c #DFDFDF",
"_.	c #5C5C5C",
":.	c #5F5F5F",
"<.	c #616161",
"[.	c #727273",
"}.	c #F4F4F4",
"|.	c #F3F3F3",
"1.	c #ADADAD",
"2.	c #737373",
"3.	c #5D5D5D",
"4.	c #F5F5F5",
"5.	c #F3F3F4",
"6.	c #F5F5F7",
"7.	c #F7F7F7",
"8.	c #F2F2F2",
". . . . . . . . . . . . . . . . . . . . . . ",
"+ + + + + + + + + + + + + + + + + + + + + + ",
"@ @ @ @ @ @ @ @ @ @ @ @ @ @ @ @ @ @ @ @ @ @ ",
"# # # # # # # $ % & * * = % - # # # # # # # ",
"; ; ; ; ; > , ' ) ) ) ) ) ) ' ! ~ ; ; ; ; ; ",
"~ ~ ~ ~ { ] ^ / ( _ : : < ( [ [ } { ~ ~ ~ ~ ",
"| | | | 1 2 3 _ 4 5 5 5 5 4 6 / 2 7 | | | | ",
"> > > 8 9 0 a b 5 c d d c 5 b e f g h > > > ",
"{ { { i j k l 4 d m < < m d 4 l k n i { { { ",
"o o o p q a r 5 s [ t t = u 5 r v q w o o o ",
"x x x y z A B 5 C D - - E F 5 G H z y x x x ",
"I I I J K L L M a N - - [ a M O P K J I I I ",
"Q Q Q R S T U A 5 V W X Y 5 P U Z S R Q Q Q ",
"` ` `  ...+.@.#.A $.%.&.*.A #.=.-.;. .` ` ` ",
">.>.>.,.D '.l ).!.~.P P {.!.).l ].D ^.>.>.>.",
"/./././.8 h (.r _.:.<.<.:._.[.(.h 8 /./././.",
"}.}.}.}.}.|.}.8 1.2.3.3.2.1.8 4.|.}.}.}.}.}.",
"5.5.5.5.5.5./.Q 6.Q Q Q Q 6.Q /.5.5.5.5.5.5.",
"^.^.^.^.^.^.^.5.>.7.{ { 7.4.5.^.^.^.^.^.^.^.",
"8.8.8.8.8.8.8.8.8.8.8.8.8.8.8.8.8.8.8.8.8.8.",
",.,.,.,.,.,.,.,.,.,.,.,.,.,.,.,.,.,.,.,.,.,.",
"- - - - - - - - - - - - - - - - - - - - - - ",
"- - - - - - - - - - - - - - - - - - - - - - "};
