/* XPM */
static char * stick_pressed_xpm[] = {
"22 23 61 1",
" 	c None",
".	c #BFBFC2",
"+	c #FFFFFF",
"@	c #FDFDFD",
"#	c #FCFCFD",
"$	c #FCFCFC",
"%	c #FBFBFB",
"&	c #FAFAFB",
"*	c #E3E3E4",
"=	c #C5C5C6",
"-	c #BABABB",
";	c #C6C6C6",
">	c #FAFAFA",
",	c #D9D9D9",
"'	c #C0C0C0",
")	c #C1C1C1",
"!	c #F9F9F9",
"~	c #E7E7E7",
"{	c #C9C9C9",
"]	c #C8C8C8",
"^	c #9E9E9E",
"/	c #818181",
"(	c #E8E8E8",
"_	c #F8F8F9",
":	c #DADADB",
"<	c #D3D3D4",
"[	c #9C9C9C",
"}	c #717171",
"|	c #9F9F9F",
"1	c #DBDBDB",
"2	c #F8F8F8",
"3	c #DCDCDC",
"4	c #757575",
"5	c #6B6B6B",
"6	c #DDDDDD",
"7	c #F7F7F8",
"8	c #E3E3E3",
"9	c #6F6F6F",
"0	c #656565",
"a	c #E5E5E6",
"b	c #F6F6F7",
"c	c #EBEBEB",
"d	c #EAEAEA",
"e	c #9A9A9A",
"f	c #5F5F5F",
"g	c #EBEBEC",
"h	c #F6F6F6",
"i	c #F3F3F3",
"j	c #F0F0F0",
"k	c #EDEDED",
"l	c #989898",
"m	c #626262",
"n	c #F5F5F6",
"o	c #F3F3F4",
"p	c #F4F4F5",
"q	c #F5F5F5",
"r	c #F4F4F4",
"s	c #F2F2F3",
"t	c #F2F2F2",
"u	c #F1F1F2",
"v	c #F0F0F1",
"......................",
"++++++++++++++++++++++",
"@@@@@@@@@@@@@@@@@@@@@@",
"######################",
"$$$$$$$$$$$$$$$$$$$$$$",
"%%%%%%%%%%%%%%%%%%%%%%",
"&&&&&&&&*=--;*&&&&&&&&",
">>>>>>>,'')))),>>>>>>>",
"!!!!!!~{]^//^]{(!!!!!!",
"______:<[}}}}|<1______",
"2222223145555436222222",
"777777889000098a777777",
"bbbbbbcdeffffedgbbbbbb",
"hhhhhhijklmmlkjihhhhhh",
"nnnnnnnonnnnnnonnnnnnn",
"ppppppppq7!!7qpppppppp",
"rrrrrrrrrrrrrrrrrrrrrr",
"oooooooooooooooooooooo",
"ssssssssssssssssssssss",
"tttttttttttttttttttttt",
"uuuuuuuuuuuuuuuuuuuuuu",
"vvvvvvvvvvvvvvvvvvvvvv",
"vvvvvvvvvvvvvvvvvvvvvv"};
