/* XPM */
static char * max_pressed_xpm[] = {
"22 23 116 2",
"  	c None",
". 	c #BFBFC2",
"+ 	c #FFFFFF",
"@ 	c #FDFDFD",
"# 	c #FCFCFD",
"$ 	c #FCFCFC",
"% 	c #EFEFEF",
"& 	c #D3D3D3",
"* 	c #BFBFBF",
"= 	c #B9B9B9",
"- 	c #C0C0C0",
"; 	c #F0F0F0",
"> 	c #FBFBFB",
", 	c #F9F9F9",
"' 	c #D4D4D4",
") 	c #BCBCBC",
"! 	c #BBBBBB",
"~ 	c #D5D5D5",
"{ 	c #FAFAFA",
"] 	c #FAFAFB",
"^ 	c #F8F8F9",
"/ 	c #CFCFCF",
"( 	c #C1C1C2",
"_ 	c #BEBEBF",
": 	c #909090",
"< 	c #696969",
"[ 	c #5D5D5D",
"} 	c #6A6A6A",
"| 	c #919191",
"1 	c #BFBFC0",
"2 	c #D0D0D0",
"3 	c #DBDBDB",
"4 	c #C8C8C8",
"5 	c #6D6D6D",
"6 	c #5A5A5A",
"7 	c #6C6C6C",
"8 	c #DCDCDC",
"9 	c #CDCDCD",
"0 	c #CACACA",
"a 	c #6E6E6E",
"b 	c #C9C9C9",
"c 	c #CECECE",
"d 	c #E0E0E1",
"e 	c #D2D2D3",
"f 	c #9B9B9C",
"g 	c #606060",
"h 	c #616161",
"i 	c #7F7F7F",
"j 	c #939393",
"k 	c #939394",
"l 	c #7E7E7E",
"m 	c #9C9C9D",
"n 	c #D3D3D4",
"o 	c #F8F8F8",
"p 	c #D8D8D8",
"q 	c #787878",
"r 	c #646464",
"s 	c #848484",
"t 	c #9C9C9C",
"u 	c #838384",
"v 	c #7A7A7A",
"w 	c #DDDDDD",
"x 	c #F7F7F8",
"y 	c #DDDDDE",
"z 	c #6B6B6B",
"A 	c #666666",
"B 	c #99999A",
"C 	c #9D9D9D",
"D 	c #9D9D9E",
"E 	c #9A9A9A",
"F 	c #676767",
"G 	c #DEDEDE",
"H 	c #F6F6F7",
"I 	c #E2E2E3",
"J 	c #E1E1E2",
"K 	c #9F9FA0",
"L 	c #9F9F9F",
"M 	c #9E9E9E",
"N 	c #6F6F6F",
"O 	c #F6F6F6",
"P 	c #E7E7E7",
"Q 	c #E6E6E6",
"R 	c #8B8B8B",
"S 	c #A1A1A1",
"T 	c #8A8A8A",
"U 	c #868686",
"V 	c #F5F5F6",
"W 	c #ECECED",
"X 	c #E9E9EA",
"Y 	c #B4B4B4",
"Z 	c #707070",
"` 	c #717171",
" .	c #8A8A8B",
"..	c #B4B4B5",
"+.	c #EAEAEB",
"@.	c #F4F4F5",
"#.	c #F1F1F1",
"$.	c #EDEDED",
"%.	c #878787",
"&.	c #737373",
"*.	c #F1F1F2",
"=.	c #F4F4F4",
"-.	c #E5E5E5",
";.	c #8D8D8D",
">.	c #767676",
",.	c #F3F3F4",
"'.	c #F2F2F3",
").	c #C2C2C2",
"!.	c #929293",
"~.	c #7D7D7D",
"{.	c #C2C2C3",
"].	c #F2F2F2",
"^.	c #F3F3F3",
"/.	c #F5F5F5",
"(.	c #F7F7F7",
"_.	c #F0F0F1",
". . . . . . . . . . . . . . . . . . . . . . ",
"+ + + + + + + + + + + + + + + + + + + + + + ",
"@ @ @ @ @ @ @ @ @ @ @ @ @ @ @ @ @ @ @ @ @ @ ",
"# # # # # # # # # # # # # # # # # # # # # # ",
"$ $ $ $ $ $ $ % & * = = - & ; $ $ $ $ $ $ $ ",
"> > > > > , ' ) ! ! ! ! ! ! ) ~ { > > > > > ",
"] ] ] ] ^ / ( _ : < [ [ } | 1 ( 2 ^ ] ] ] ] ",
"{ { { { 3 4 ! 5 6 6 6 6 6 6 7 ) 4 8 { { { { ",
", , , % 9 0 a [ [ [ [ [ [ [ [ a b c ; , , , ",
"^ ^ ^ d e f g g h i j k l h g h m n d ^ ^ ^ ",
"o o o 8 p q r r s t t t t u r r v p w o o o ",
"x x x y w z A A B C t m D E F F 7 w G x x x ",
"H H H I J 7 } } t K L M K t } } N J I H H H ",
"O O O P Q s 5 5 R S S S S T 5 5 U Q P O O O ",
"V V V W X Y Z Z `  .C C R ` Z Z ..+.W V V V ",
"@.@.@.#.$.X %.&.&.&.&.&.&.&.&.T +.$.*.@.@.@.",
"=.=.=.=.; #.-.;.>.>.>.>.>.>.;.-.#.; =.=.=.=.",
",.,.,.,.,.'.=.#.).!.~.~.j {.#.@.'.,.,.,.,.,.",
"'.'.'.'.'.'.=.O O O O O O O O =.'.'.'.'.'.'.",
"].].].].].].].^./.(., , (./.^.].].].].].].].",
"*.*.*.*.*.*.*.*.*.*.*.*.*.*.*.*.*.*.*.*.*.*.",
"_._._._._._._._._._._._._._._._._._._._._._.",
"_._._._._._._._._._._._._._._._._._._._._._."};
